<svg xmlns="http://www.w3.org/2000/svg" viewBox="0 0 64 80" x="0px" y="0px"><g data-name="copy"><path d="M51.4,18.65c-1.49771-.00706-6.66364.0051-8.05,0H23.17a4.52812,4.52812,0,0,0-4.52,4.52V51.4a4.52169,4.52169,0,0,0,4.52,4.52H51.4a4.51529,4.51529,0,0,0,4.52-4.52V23.17A4.52169,4.52169,0,0,0,51.4,18.65ZM53.92,51.4a2.52225,2.52225,0,0,1-2.52,2.52H23.17a2.52226,2.52226,0,0,1-2.52-2.52V23.17a2.52226,2.52226,0,0,1,2.52-2.52H51.4a2.52226,2.52226,0,0,1,2.52,2.52ZM12.6,43.35h4.05v2H12.6a4.5281,4.5281,0,0,1-4.52-4.52V12.6A4.52813,4.52813,0,0,1,12.6,8.08H40.83a4.52812,4.52812,0,0,1,4.52,4.52v4.05h-2V12.6a2.52226,2.52226,0,0,0-2.52-2.52H12.6a2.52226,2.52226,0,0,0-2.52,2.52V40.83A2.52227,2.52227,0,0,0,12.6,43.35Z"/></g><text x="0" y="79" fill="#000000" font-size="5px" font-weight="bold" font-family="'Helvetica Neue', Helvetica, Arial-Unicode, Arial, Sans-serif">Created by Zky Icon</text><text x="0" y="84" fill="#000000" font-size="5px" font-weight="bold" font-family="'Helvetica Neue', Helvetica, Arial-Unicode, Arial, Sans-serif">from the Noun Project</text></svg>